<svg width="128" height="29" viewBox="0 0 128 29" fill="none" xmlns="http://www.w3.org/2000/svg">
<path d="M9.33422 24.1066C6.89059 24.1066 4.84259 23.2982 3.23677 21.7044C1.63095 20.0876 0.816406 18.1013 0.816406 15.7222C0.816406 13.3432 1.63095 11.3568 3.23677 9.76311C4.84259 8.1463 6.89059 7.33789 9.33422 7.33789C12.2899 7.33789 14.943 8.81612 16.3393 11.1951L14.012 12.5348C13.151 10.9411 11.3822 9.92479 9.33422 9.92479C7.58877 9.92479 6.19241 10.4791 5.09859 11.5647C4.02804 12.6503 3.49277 14.0361 3.49277 15.7222C3.49277 17.4083 4.02804 18.7942 5.09859 19.8798C6.19241 20.9653 7.58877 21.5197 9.33422 21.5197C11.3822 21.5197 13.1742 20.5034 14.012 18.9097L16.3393 20.2262C15.6644 21.4042 14.687 22.3512 13.4302 23.0672C12.1968 23.7601 10.8237 24.1066 9.33422 24.1066Z" fill="#292929"/>
<path d="M27.5228 14.2671V7.63816H30.1991V23.8063H27.5228V16.8078H20.541V23.8063H17.8646V7.63816H20.541V14.2671H27.5228Z" fill="#292929"/>
<path d="M35.4337 16.9002V21.2656H42.6482V23.8063H32.7573V7.63816H42.5319V10.1789H35.4337V14.3826H41.95V16.9002H35.4337Z" fill="#292929"/>
<path d="M51.9669 24.1066C49.5233 24.1066 47.4753 23.2982 45.8695 21.7044C44.2637 20.0876 43.4491 18.1013 43.4491 15.7222C43.4491 13.3432 44.2637 11.3568 45.8695 9.76311C47.4753 8.1463 49.5233 7.33789 51.9669 7.33789C54.9226 7.33789 57.5757 8.81612 58.972 11.1951L56.6448 12.5348C55.7837 10.9411 54.0149 9.92479 51.9669 9.92479C50.2215 9.92479 48.8251 10.4791 47.7313 11.5647C46.6608 12.6503 46.1255 14.0361 46.1255 15.7222C46.1255 17.4083 46.6608 18.7942 47.7313 19.8798C48.8251 20.9653 50.2215 21.5197 51.9669 21.5197C54.0149 21.5197 55.8069 20.5034 56.6448 18.9097L58.972 20.2262C58.2971 21.4042 57.3197 22.3512 56.0629 23.0672C54.8295 23.7601 53.4564 24.1066 51.9669 24.1066Z" fill="#292929"/>
<path d="M65.9664 15.5144L72.7853 23.8063H69.5969L63.1737 16.1149V23.8063H60.4973V7.63816H63.1737V14.8907L69.3642 7.63816H72.5526L65.9664 15.5144Z" fill="#292929"/>
<path d="M86.552 7.63816H89.4146V23.8063H86.7382V12.2807L81.7811 20.411H81.4553L76.4982 12.2576V23.8063H73.8219V7.63816H76.7077L81.6182 15.7222L86.552 7.63816Z" fill="#292929"/>
<path d="M105.463 23.8063H102.577L101.437 20.5496H94.5013L93.3609 23.8063H90.4518L96.3631 7.63816H99.5748L105.463 23.8063ZM97.9689 10.7563L95.3857 18.0551H100.552L97.9689 10.7563Z" fill="#292929"/>
<path d="M104.077 7.63816H115.946V10.1789H111.362V23.8063H108.685V10.1789H104.077V7.63816Z" fill="#292929"/>
<path d="M119.904 16.9002V21.2656H127.118V23.8063H117.227V7.63816H127.002V10.1789H119.904V14.3826H126.42V16.9002H119.904Z" fill="#292929"/>
<rect width="4.11645" height="4.11645" rx="2.05822" transform="matrix(0.708844 0.705365 -0.708844 0.705365 110.023 0)" fill="#292929"/>
</svg>
