<svg width="415" height="415" viewBox="0 0 415 415" fill="none" xmlns="http://www.w3.org/2000/svg">
<path d="M159.527 164.112C157.908 162.875 156.008 162.058 153.996 161.736C151.983 161.414 149.923 161.597 147.999 162.267C151.371 149.817 154.801 135.707 163.333 126.295C164.485 125.083 171.461 117.995 180.107 116.667C184.975 115.988 189.929 116.263 194.692 117.474C200.515 118.858 201.841 120.126 203.455 122.548C205.274 125.531 206.891 128.631 208.298 131.829C206.871 131.829 196.633 126.527 185.181 129.349C171.633 132.636 168.867 140.418 166.964 143.818C164.118 150.443 161.636 157.217 159.527 164.112Z" fill="#EB5931"/>
<path d="M139.811 171.721C141.048 169.788 142.679 168.138 144.598 166.878C152.292 161.388 162.042 167.934 163.217 176.678C163.677 180.368 164.024 187.344 160.853 192.656C159.332 195.338 156.828 197.324 153.871 198.195C150.913 199.066 147.732 198.754 145 197.324C137.035 193.257 135.431 179.091 139.811 171.721ZM142.521 189.774C142.696 189.931 142.912 190.035 143.144 190.074C143.376 190.114 143.614 190.087 143.831 189.996C144.049 189.905 144.236 189.755 144.371 189.563C144.506 189.37 144.584 189.143 144.596 188.908C144.48 185.854 143.326 183.028 143.498 179.915C143.498 178.252 143.829 176.605 144.472 175.07C145.116 173.536 146.058 172.146 147.246 170.98C148.227 170.115 146.897 168.436 145.862 169.194C144.363 170.318 143.11 171.737 142.178 173.362C141.247 174.988 140.656 176.786 140.444 178.647C139.927 182.156 139.985 186.997 142.521 189.765V189.774Z" fill="#EB5931"/>
<path d="M242.775 83.463C244.966 76.2005 290.618 79.56 296.102 80.7531C297.476 80.8957 298.737 81.5755 299.612 82.6444C300.487 83.7133 300.903 85.0846 300.771 86.4593C300.862 91.5908 302.269 112.575 301.464 117.879C300.194 126.409 292.527 125.891 285.667 126.121C281.747 126.237 265.087 125.949 265.087 125.949C252.015 135.326 253.936 134.282 253.675 134.02C253.444 132.29 254.77 125.776 251.946 125.372C250.792 125.2 245.142 125.2 244.047 123.355C241.445 119.031 242.252 85.0753 242.775 83.463Z" fill="#EB5931"/>
<path d="M11.3153 175.13C11.2437 174.448 11.308 173.759 11.5045 173.102C11.701 172.445 12.0259 171.833 12.4602 171.303C12.8946 170.772 13.4299 170.333 14.0351 170.01C14.6403 169.688 15.3034 169.488 15.9861 169.424C21.4039 168.27 67.1183 164.927 69.3136 172.19C69.7743 173.804 70.5814 207.76 68.0458 212.082C66.9502 213.926 61.302 213.926 60.1483 214.101C57.0358 214.545 58.8556 222.484 58.3597 222.978C58.3597 222.863 46.3122 215.945 46.3122 215.945C46.3122 215.945 30.3451 214.964 26.4233 214.85C19.5634 214.62 11.8983 215.08 10.6284 206.606C9.81712 201.294 11.224 180.318 11.3153 175.13Z" fill="#EB5931"/>
<path d="M206.338 198.009C207.259 197.945 207.606 199.161 207.087 199.738C202.707 204.523 193.079 199.624 193.184 193.569C193.193 193.322 193.281 193.084 193.435 192.891C193.588 192.697 193.8 192.558 194.039 192.494C194.277 192.43 194.53 192.443 194.76 192.533C194.991 192.623 195.186 192.785 195.317 192.994C196.248 195 197.778 196.668 199.698 197.767C201.957 198.931 203.972 198.163 206.338 198.009Z" fill="#2E3339"/>
<path d="M211.65 145.607C212.567 146.362 211.592 147.854 210.497 147.566C207.212 146.528 205.021 148.892 205.079 152.131C205.172 156.048 208.814 161.298 211.65 173.115C212.804 177.784 215.628 190.813 206.693 189.776C205.77 189.659 205.367 188.219 206.463 187.989C213.495 186.547 209.287 175.479 208.077 171.04C205.004 160.161 199.24 152.467 203.753 146.713C204.19 146.111 204.745 145.604 205.383 145.221C206.021 144.837 206.73 144.587 207.467 144.484C208.204 144.38 208.954 144.427 209.673 144.62C210.392 144.813 211.064 145.149 211.65 145.607Z" fill="#2E3339"/>
<path d="M189.677 166.648C186.853 166.944 182.817 164.573 183.164 161.344C183.173 161.085 183.265 160.835 183.425 160.631C183.586 160.427 183.807 160.279 184.057 160.209C184.307 160.139 184.572 160.149 184.816 160.239C185.059 160.33 185.267 160.495 185.411 160.711C186.392 162.151 187.142 163.765 189.158 163.824C190.118 163.789 191.032 163.407 191.731 162.75C192.43 162.092 192.868 161.204 192.962 160.248C192.973 160.004 193.079 159.773 193.256 159.604C193.433 159.435 193.668 159.34 193.913 159.34C194.158 159.34 194.394 159.435 194.571 159.604C194.748 159.773 194.853 160.004 194.865 160.248C194.976 161.775 194.501 163.286 193.538 164.475C192.574 165.664 191.193 166.441 189.677 166.648Z" fill="#2E3339"/>
<path d="M209.574 159.788C209.579 159.588 209.636 159.392 209.739 159.221C209.842 159.049 209.987 158.907 210.161 158.808C210.335 158.71 210.532 158.658 210.732 158.658C210.932 158.658 211.129 158.71 211.303 158.808C211.938 159.153 212.457 159.904 213.322 159.73C214.129 159.557 214.418 158.692 214.648 158.001C214.691 157.853 214.777 157.72 214.895 157.62C215.012 157.52 215.157 157.457 215.31 157.438C215.464 157.42 215.619 157.447 215.757 157.516C215.896 157.585 216.011 157.693 216.088 157.827C216.281 158.248 216.383 158.704 216.387 159.167C216.392 159.63 216.298 160.089 216.114 160.513C215.929 160.937 215.656 161.318 215.314 161.63C214.973 161.942 214.569 162.178 214.129 162.323C212.39 162.958 209.44 161.977 209.574 159.788Z" fill="#2E3339"/>
<path d="M192.271 148.603C186.687 147.244 182.587 150.795 179.763 155.061C179.615 155.301 179.385 155.48 179.116 155.564C178.847 155.649 178.556 155.634 178.297 155.522C178.038 155.41 177.828 155.208 177.706 154.954C177.583 154.7 177.556 154.41 177.63 154.137C178.667 147.452 187.198 144.8 192.79 146.817C193.014 146.896 193.2 147.058 193.309 147.27C193.417 147.481 193.441 147.727 193.375 147.955C193.308 148.184 193.157 148.378 192.952 148.499C192.747 148.619 192.503 148.657 192.271 148.603Z" fill="#2E3339"/>
<path d="M226.054 216.917C222.942 218.577 217.58 218.243 216.599 215.591C214.409 209.652 220.807 204.695 226.918 207.116C229.173 204.157 230.677 200.696 231.3 197.028C232.4 190.693 230.325 185.327 228.648 179.33C228.36 178.293 229.744 177.832 230.318 178.639C236.892 187.69 235.969 201.41 229.109 210.057C229.416 211.377 229.284 212.761 228.732 213.999C228.181 215.237 227.241 216.262 226.054 216.917Z" fill="#2E3339"/>
<path d="M20.5958 374.872C25.0532 374.731 29.5119 374.635 33.9713 374.583C32.9337 358.789 31.5497 342.992 31.2613 327.139C31.2639 326.916 31.3176 326.697 31.4185 326.498C31.5193 326.299 31.6645 326.126 31.8428 325.993C32.0212 325.859 32.2279 325.768 32.4469 325.727C32.6659 325.686 32.8914 325.696 33.106 325.757C38.3676 327.432 43.843 328.34 49.3636 328.454C54.9311 328.45 60.4739 327.714 65.8495 326.265C66.0562 326.209 66.273 326.2 66.4835 326.24C66.6941 326.279 66.8928 326.366 67.0648 326.494C67.2369 326.622 67.3777 326.787 67.4767 326.977C67.5756 327.167 67.6301 327.377 67.636 327.591C67.6025 343.355 66.1168 359.082 63.1977 374.573C67.7025 374.619 114.93 374.498 169.915 374.339C146.6 373.079 118.996 363.638 101.88 347.766C102.584 355.927 104.091 363.998 106.376 371.863C106.723 373.131 104.704 374.112 104.129 372.787C102.317 368.182 101.039 363.385 100.322 358.49C99.2311 354.101 98.8231 349.571 99.1118 345.058C92.288 338.107 87.1135 329.711 83.9706 320.491C80.8276 311.271 79.7965 301.463 80.9534 291.791C83.3335 267.984 92.9884 250.418 114.332 238.179C110.816 237.208 107.654 235.247 105.223 232.529C103.937 231.092 103.006 229.373 102.506 227.511C102.005 225.649 101.948 223.695 102.34 221.807C103.264 218.174 106.376 216.205 109.603 214.715C113.143 213.038 116.125 210.376 118.191 207.048C125.686 196.154 122.574 181.799 122.632 174.939C122.862 151.699 123.265 117.983 147.073 105.531C160.793 98.3242 181.547 99.4198 190.136 113.658C186.636 113.268 183.097 113.424 179.645 114.121C172.516 115.296 166.049 119 161.428 124.554C156.779 130.007 153.235 136.312 150.993 143.117C149.09 148.305 144.826 164.216 144.826 164.216C142.227 165.726 140.031 167.843 138.427 170.385C133.457 179.006 135.341 194.835 144.363 199.497C147.039 200.921 150.12 201.389 153.097 200.823C156.074 200.257 158.769 198.691 160.735 196.385C161.947 203.65 161.313 211.104 158.89 218.06C157.162 223.017 155.317 228.321 151.281 231.491C154.311 233.222 169.373 245.994 174.802 249.075C181.143 252.648 192.962 257.952 195.209 247.286C195.439 246.135 197.17 246.654 196.996 247.747C194.114 263.31 174.793 252.36 167.251 247.403C164.368 245.5 153.645 236.335 150.763 234.432C141.137 228.032 127.301 234.604 118.366 239.447C107.92 244.759 99.0977 252.787 92.8266 262.687C86.7593 273.702 83.6046 286.084 83.6613 298.659C83.4891 323.333 97.4974 344.029 118.422 356.249C129.487 362.471 141.506 366.819 153.991 369.114C166.904 371.708 180.682 372.687 193.416 368.939C194.694 362.874 194.674 356.608 193.358 350.551C184.942 352.375 176.201 352.047 167.945 349.596C159.689 347.145 152.185 342.652 146.127 336.53C140.069 330.409 135.653 322.859 133.288 314.578C130.924 306.297 130.686 297.553 132.598 289.156C133.059 286.85 136.632 287.83 136.115 290.135C134.35 298.071 134.639 306.327 136.954 314.12C139.27 321.914 143.535 328.987 149.347 334.673C155.159 340.358 162.325 344.466 170.168 346.609C178.01 348.752 186.27 348.859 194.165 346.92C194.593 346.808 195.047 346.866 195.433 347.08C195.82 347.295 196.109 347.649 196.24 348.071C196.69 349.921 197.056 351.791 197.336 353.674C200.511 351.596 204.084 350.202 207.827 349.582C217.19 347.575 223.076 351.414 231.175 356.556C235.225 358.721 239.083 361.229 242.706 364.051C243.455 364.742 242.648 366.242 241.668 365.837C229.816 360.907 221.705 349.044 207.946 352.234C204.404 353.261 200.937 354.532 197.571 356.037C197.967 360.139 197.758 364.277 196.948 368.317C196.313 371.546 195.622 371.718 192.508 372.525C188.648 373.496 184.705 374.102 180.732 374.332L199.629 374.276C199.308 373.914 199.063 373.49 198.909 373.03C198.755 372.571 198.696 372.085 198.735 371.602C198.712 370.102 199.155 368.632 200.002 367.394C201.386 366.01 231.881 367.624 244.737 367.105C249.406 357.593 253.961 348.015 258.573 338.456C247.878 334.742 238.312 328.352 230.787 319.893C230.675 328.672 228.476 342.9 223.581 349.754C222.657 351.022 220.468 350.331 220.987 348.658C222.485 343.643 225.021 339.03 226.174 333.843C229.524 317.643 227.457 300.791 220.294 285.879C220.164 285.65 220.131 285.378 220.201 285.124C220.271 284.87 220.44 284.654 220.669 284.524C220.899 284.394 221.171 284.361 221.425 284.431C221.679 284.502 221.895 284.67 222.024 284.9C227.217 294.101 230.198 304.384 230.729 314.936C238.482 324.309 248.42 331.634 259.669 336.264C263.991 327.271 268.316 318.212 272.696 309.227C263.282 299.307 251.531 278.745 240.241 266.8C224.33 249.851 211.301 245.469 206.979 244.201C194.641 240.742 191.989 244.431 191.758 242.875C191.078 238.623 190.827 234.313 191.009 230.01C190.986 226.828 191.334 223.655 192.047 220.554C185.417 219.114 180.055 213.638 181.093 206.085C181.267 204.759 183.342 205.164 183.4 206.374C183.561 208.868 184.506 211.248 186.101 213.173C187.695 215.099 189.857 216.471 192.277 217.095C194.958 217.578 197.715 217.417 200.321 216.625C202.927 215.834 205.308 214.434 207.267 212.543C214.415 206.201 218.393 195.997 220.238 186.831C222.087 177.599 221.684 168.057 219.064 159.013C216.444 149.969 211.684 141.69 205.186 134.875C205.025 134.715 204.935 134.497 204.935 134.27C204.935 134.044 205.025 133.826 205.186 133.666C205.346 133.505 205.564 133.415 205.791 133.415C206.017 133.415 206.235 133.505 206.395 133.666C212.59 139.616 217.393 146.861 220.462 154.883C223.532 162.905 224.791 171.506 224.151 180.071C223.114 195.291 215.436 218.292 197.747 220.656C196.695 220.78 195.635 220.818 194.576 220.77C194.466 227.026 192.966 226.758 194.174 239.796C194.232 239.796 194.232 239.738 194.288 239.738C202.648 237.893 212.044 241.524 219.366 245.386C237.035 254.659 248.097 270.159 259.206 286.087C263.991 292.947 269.065 299.574 274.08 306.262C276.213 301.824 289.24 276.797 291.201 276.175C293.234 275.519 386.651 277.065 397.159 279.057C402.346 280.036 397.733 287.301 396.465 290.125C385.225 315.894 353.577 373.714 353.513 373.772C364.583 373.6 375.3 373.484 386.431 373.37C386.683 373.37 386.925 373.47 387.103 373.648C387.281 373.826 387.381 374.068 387.381 374.32C387.381 374.572 387.281 374.814 387.103 374.992C386.925 375.17 386.683 375.27 386.431 375.27C293.155 379.734 44.2093 378.001 20.7141 377.001C20.5687 377.019 20.4212 377.007 20.2806 376.966C20.14 376.924 20.0095 376.855 19.897 376.761C19.7846 376.667 19.6926 376.551 19.6269 376.42C19.5612 376.289 19.523 376.146 19.5149 376C19.5068 375.853 19.5288 375.707 19.5797 375.57C19.6305 375.432 19.709 375.307 19.8104 375.201C19.9118 375.095 20.0338 375.011 20.1689 374.955C20.304 374.898 20.4493 374.87 20.5958 374.872ZM36.8535 374.583C44.9231 374.525 52.9949 374.583 61.0085 374.642C63.2332 359.692 64.4843 344.614 64.7539 329.502C59.7018 330.766 54.5135 331.405 49.3055 331.405C44.1906 331.314 39.1109 330.538 34.2016 329.099C34.5481 344.318 35.872 359.421 36.8535 374.583Z" fill="#2E3339"/>
<path d="M329.186 321.833C329.993 321.026 332.759 319.007 335.009 321.026C338.41 324.022 333.336 331.689 329.406 331.459C323.19 331.116 327.686 322.989 329.186 321.833Z" fill="#EB5931"/>
<path d="M59.7387 325.524C60.2948 319.592 60.2014 313.074 61.6996 307.308C61.7769 307.046 61.9448 306.821 62.1732 306.672C62.4016 306.523 62.6756 306.46 62.946 306.495C63.2164 306.53 63.4657 306.66 63.6491 306.862C63.8325 307.063 63.938 307.324 63.9468 307.596C64.063 313.535 62.5067 319.934 61.6996 325.813C61.5273 326.908 59.6308 326.678 59.7387 325.524Z" fill="#2E3339"/>
<path d="M51.7836 325.294C52.626 315.853 53.0514 306.559 52.9954 297.047C53.0397 296.696 53.2105 296.373 53.4758 296.139C53.7412 295.905 54.0827 295.776 54.4365 295.776C54.7902 295.776 55.1319 295.905 55.3972 296.139C55.6625 296.373 55.8333 296.696 55.8776 297.047C56.4197 306.614 55.6828 316.21 53.6864 325.582C53.6128 325.8 53.465 325.984 53.269 326.104C53.0729 326.223 52.8411 326.27 52.6142 326.235C52.3872 326.201 52.1796 326.088 52.0277 325.916C51.8759 325.744 51.7894 325.523 51.7836 325.294Z" fill="#2E3339"/>
<path d="M41.4647 324.431C40.4147 318.658 39.9084 312.67 39.3316 306.847C38.404 300.701 37.9034 294.499 37.8334 288.284C37.8407 287.961 37.9634 287.651 38.1794 287.411C38.3953 287.17 38.6902 287.015 39.0107 286.973C39.3312 286.931 39.656 287.006 39.9265 287.182C40.197 287.359 40.3952 287.627 40.4853 287.938C41.5339 293.768 42.2076 299.659 42.5022 305.575C43.079 311.744 43.8281 317.969 43.8281 324.138C43.8281 325.41 41.7075 325.755 41.4647 324.431Z" fill="#2E3339"/>
<path d="M13.2173 54.1205C13.4476 49.8543 12.7566 44.6087 16.6763 41.8987C21.98 38.2654 29.7633 37.8629 35.9302 37.4022C55.6904 35.7422 89.2847 37.9811 96.1052 39.4191C99.2177 40.0541 100.486 43.0504 100.888 45.9906C101.149 48.9445 101.149 51.9156 100.888 54.8696C100.874 55.2271 100.722 55.5653 100.465 55.8134C100.207 56.0614 99.8629 56.2 99.5051 56.2C99.1473 56.2 98.8034 56.0614 98.5456 55.8134C98.2877 55.5653 98.136 55.2271 98.1221 54.8696C98.1221 51.9293 99.1015 42.82 95.8749 42.2432C77.6217 39.9204 59.2045 39.1492 40.821 39.9379C34.0171 40.2844 26.296 40.5728 20.0088 43.3969C19.265 43.6194 18.5796 44.0036 18.0017 44.5219C17.4238 45.0403 16.9677 45.68 16.6659 46.3953C16.6659 47.9432 13.6489 93.9563 15.7446 100.237C16.8962 103.869 22.6606 105.657 26.1777 105.715C33.1684 105.944 53.7441 104.757 63.5277 104.504C65.9492 104.445 79.1504 119.029 79.1504 119.029C79.1504 119.029 79.3226 111.073 79.4388 107.095C79.4467 106.867 79.5055 106.643 79.6108 106.44C79.7161 106.237 79.8653 106.06 80.0476 105.922C80.2298 105.785 80.4406 105.689 80.6644 105.643C80.8883 105.596 81.1196 105.601 81.3416 105.655C86.3569 106.404 92.4096 106.518 96.5596 103.117C99.0393 101.101 98.9231 97.4693 98.9812 94.529C99.1534 88.0716 97.8275 81.0415 99.1534 74.6402C99.3277 73.6608 100.998 73.8911 100.882 74.8705C100.135 82.826 102.498 90.8978 101.459 98.9094C100.249 108.133 90.2765 109.517 82.3791 108.71C82.2629 113.553 82.0907 118.396 81.9745 123.235C81.9638 123.548 81.8532 123.85 81.659 124.096C81.4648 124.343 81.197 124.521 80.8946 124.604C80.5922 124.688 80.271 124.673 79.9778 124.561C79.6846 124.45 79.4347 124.247 79.2645 123.984C74.7449 117.95 69.6269 112.388 63.9884 107.384C63.6439 107.442 45.7138 108.249 37.1254 108.479C29.5724 108.71 17.9275 110.266 13.431 102.196C10.8393 97.5253 12.9019 59.3868 13.2173 54.1205Z" fill="#2E3339"/>
<path d="M344.809 223.66C337.084 228.678 329.359 233.749 321.864 239.053C321.638 239.186 321.382 239.257 321.121 239.26C320.859 239.262 320.602 239.196 320.374 239.067C320.146 238.939 319.956 238.753 319.823 238.528C319.69 238.303 319.619 238.046 319.616 237.785C320.077 233.347 320.596 228.964 321.056 224.526C312.698 226.717 302.091 227.236 299.151 217.091C297.711 212.018 298.055 206.137 298.055 200.95C297.999 194.376 297.941 187.69 298.518 181.117C298.518 180.719 298.676 180.338 298.957 180.057C299.238 179.776 299.619 179.619 300.016 179.619C300.413 179.619 300.794 179.776 301.075 180.057C301.356 180.338 301.514 180.719 301.514 181.117C301.744 191.033 300.892 200.891 301.514 210.806C301.803 215.649 302.782 220.376 307.913 222.218C312.64 223.891 317.83 222.332 322.438 220.951C322.669 220.891 322.909 220.884 323.142 220.931C323.376 220.978 323.595 221.077 323.784 221.222C323.973 221.366 324.126 221.552 324.233 221.764C324.34 221.977 324.397 222.211 324.399 222.449L323.015 234.729C329.356 230.404 342.5 220.951 343.537 221.065C351.723 221.988 384 224.063 391.789 223.486C394.843 223.256 398.533 222.621 400.377 219.855C402.571 216.57 402.052 166.83 401.764 158.578C401.649 155.119 401.649 150.853 398.823 148.315C396.057 145.838 391.963 145.896 388.504 145.838C373.689 145.607 310.737 143.014 307.106 144.165C302.496 145.607 302.091 151.372 301.977 155.349C301.919 156.848 299.439 157.366 299.151 155.752C298.229 149.699 299.611 142.781 306.473 141.341C311.2 140.316 311.399 141.422 385.103 142.839C391.214 142.955 399.228 142.609 402.687 148.834C403.967 151.695 404.578 154.81 404.474 157.943C404.704 163.017 404.704 210.287 404.243 214.842C403.621 221.731 400.568 225.476 391.733 225.968C386.66 226.314 355.3 224.872 344.809 223.66Z" fill="#2E3339"/>
<path d="M282.619 94.6491C282.587 94.4822 282.475 94.3432 282.32 94.2752C282.22 94.2319 279.839 93.2049 277.035 93.2049C274.729 93.2049 272.722 94.4524 271.956 94.9963C271.192 94.4524 269.184 93.2049 266.878 93.2049C264.074 93.2049 261.693 94.2319 261.593 94.2752C261.438 94.3432 261.326 94.4822 261.293 94.6491C261.266 94.7903 260.624 98.1475 260.624 102.647C260.624 105.207 260.833 107.393 261.008 108.775C261.173 110.08 262.141 111.155 263.417 111.45L271.839 113.398C271.878 113.406 271.916 113.411 271.955 113.411C271.995 113.411 272.033 113.406 272.07 113.398C272.07 113.398 272.071 113.398 272.072 113.398L280.494 111.45C281.77 111.154 282.738 110.08 282.903 108.775C283.078 107.393 283.287 105.207 283.287 102.647C283.287 98.1475 282.645 94.7903 282.617 94.6491H282.619ZM262.032 108.647C261.86 107.294 261.656 105.155 261.656 102.648C261.656 98.9716 262.107 96.0089 262.258 95.1199C262.916 94.8696 264.79 94.236 266.879 94.236C268.968 94.236 270.853 95.4712 271.442 95.8966V112.249L263.651 110.446C262.793 110.249 262.143 109.525 262.032 108.647ZM281.883 108.647C281.772 109.525 281.122 110.249 280.263 110.447L272.473 112.249V95.8956C273.06 95.4691 274.939 94.235 277.036 94.235C279.118 94.235 280.997 94.8685 281.657 95.1189C281.808 96.0089 282.259 98.9706 282.259 102.647C282.259 105.153 282.054 107.294 281.883 108.647Z" fill="#FDEEEA" stroke="#FDEEEA"/>
<path d="M56.0692 68.5411C64.5855 68.5411 68.3834 63.8756 68.3834 53.414C68.3834 42.9523 64.5855 38.2885 56.0692 38.2885C47.5528 38.2885 43.7566 42.954 43.7566 53.4156C43.7566 63.8773 47.5528 68.5411 56.0692 68.5411ZM56.0692 39.9441C60.7363 39.9441 65.1103 41.1047 66.3669 48.5648H61.728C61.271 48.5648 60.9002 48.9356 60.9002 49.3926C60.9002 49.8495 61.271 50.2203 61.728 50.2203H66.5838C66.6782 51.1922 66.7278 52.2551 66.7278 53.4156C66.7278 54.5762 66.6782 55.6374 66.5838 56.6109H61.728C61.271 56.6109 60.9002 56.9818 60.9002 57.4387C60.9002 57.8956 61.271 58.2665 61.728 58.2665H66.3669C65.1103 65.7266 60.7363 66.8871 56.0692 66.8871C51.4021 66.8871 47.0297 65.7266 45.7714 58.2665H50.4104C50.8673 58.2665 51.2382 57.8956 51.2382 57.4387C51.2382 56.9818 50.8673 56.6109 50.4104 56.6109H45.5562C45.4618 55.6391 45.4122 54.5762 45.4122 53.4156C45.4122 52.2551 45.4618 51.1938 45.5562 50.2203H50.4104C50.8673 50.2203 51.2382 49.8495 51.2382 49.3926C51.2382 48.9356 50.8673 48.5648 50.4104 48.5648H45.7714C47.028 41.1047 51.4021 39.9441 56.0692 39.9441Z" fill="#2E3339" stroke="#2E3339"/>
<path d="M73.3104 56.1407C72.8585 56.1109 72.4562 56.4453 72.4197 56.9006C71.375 70.2529 62.9514 73.0558 56.0692 73.0558C49.1869 73.0558 40.7633 70.2529 39.7186 56.9006C39.6838 56.4437 39.2815 56.1093 38.8279 56.1407C38.3726 56.1755 38.0316 56.5745 38.068 57.0314C39.2733 72.4151 49.864 74.7131 56.0708 74.7131C62.2776 74.7131 72.8684 72.4151 74.0737 57.0314C74.1084 56.5761 73.769 56.1771 73.3137 56.1407H73.3104Z" fill="#2E3339" stroke="#2E3339"/>
<path d="M369.186 173.234C369.167 173.123 368.727 170.482 366.904 168.641C365.065 166.837 362.414 166.398 362.303 166.38C362.106 166.345 361.908 166.388 361.737 166.492C361.535 166.616 356.693 169.659 346.756 179.548C336.282 189.972 333.571 194.088 333.46 194.258C333.385 194.374 333.339 194.506 333.329 194.644L332.776 201.738C332.758 201.98 332.845 202.216 333.016 202.389C333.172 202.544 333.382 202.63 333.602 202.63C333.624 202.63 333.645 202.63 333.667 202.629L340.796 202.077C340.933 202.067 341.064 202.023 341.18 201.948C341.35 201.839 345.484 199.139 355.954 188.718C365.891 178.828 368.947 174.007 369.071 173.807C369.177 173.636 369.219 173.434 369.187 173.237L369.186 173.234ZM354.784 187.543C345.612 196.672 341.307 199.839 340.445 200.443L334.501 200.904L334.961 194.995C335.571 194.132 338.756 189.848 347.921 180.725C350.857 177.805 353.348 175.484 355.401 173.666C356.202 173.851 358.25 174.441 359.697 175.861C361.134 177.27 361.734 179.249 361.926 180.043C360.091 182.096 357.745 184.594 354.784 187.543ZM363.219 178.571C362.828 177.444 362.111 175.909 360.856 174.677C359.603 173.449 358.037 172.747 356.89 172.365C359.881 169.8 361.694 168.514 362.34 168.077C362.995 168.229 364.595 168.697 365.734 169.813C366.851 170.942 367.328 172.537 367.485 173.194C367.047 173.836 365.765 175.628 363.219 178.571Z" fill="#2E3339" stroke="#2E3339"/>
<g clip-path="url(#clip0_631_3874)">
<path d="M49.3629 192.543C49.3298 185.083 46.5771 181.896 40.1755 181.896C33.8604 181.896 31.0234 185.181 30.9882 192.543C29.5126 193.207 28.4393 194.515 28.4393 197.044C28.4393 201.614 31.942 202.2 34.9945 202.2C35.225 202.2 35.4287 202.063 35.5013 201.859C36.6056 198.755 36.6056 195.335 35.5013 192.23C35.4287 192.026 35.225 191.889 34.9945 191.889C34.0193 191.889 32.9983 191.949 32.0604 192.18C32.2098 184.03 36.0422 182.889 40.1766 182.889C44.311 182.889 48.1434 184.03 48.2928 192.18C47.3549 191.95 46.3339 191.889 45.3587 191.889C45.1282 191.889 44.9244 192.026 44.8519 192.23C43.7487 195.335 43.7487 198.754 44.8519 201.859C44.9234 202.063 45.1282 202.2 45.3587 202.2C48.4101 202.2 51.9139 201.614 51.9139 197.044C51.9139 194.515 50.8406 193.207 49.365 192.543H49.3629ZM34.6051 201.203C30.9434 201.126 29.5062 199.939 29.5062 197.044C29.5062 194.15 30.9434 192.963 34.6051 192.886C35.481 195.581 35.481 198.508 34.6051 201.203ZM45.747 201.203C44.8711 198.508 44.8711 195.581 45.747 192.886C49.4088 192.963 50.8449 194.15 50.8449 197.044C50.8449 199.939 49.4077 201.126 45.747 201.203Z" fill="#FDEEEA" stroke="#FDEEEA"/>
</g>
<defs>
<clipPath id="clip0_631_3874">
<rect width="25.6064" height="23.8404" fill="white" transform="translate(27.3723 180.128)"/>
</clipPath>
</defs>
</svg>
