<svg width="42" height="42" viewBox="0 0 42 42" fill="none" xmlns="http://www.w3.org/2000/svg">
<path fill-rule="evenodd" clip-rule="evenodd" d="M22.1307 0.505373C21.5275 -0.168459 20.4725 -0.168457 19.8693 0.505375L15.3249 5.58159C15.0175 5.925 14.5706 6.11009 14.1104 6.08465L7.30765 5.70857C6.40463 5.65865 5.65865 6.40463 5.70857 7.30765L6.08465 14.1104C6.11009 14.5706 5.925 15.0175 5.58159 15.3249L0.505373 19.8693C-0.168459 20.4725 -0.168457 21.5275 0.505375 22.1307L5.58159 26.6751C5.925 26.9825 6.11009 27.4294 6.08465 27.8896L5.70857 34.6923C5.65865 35.5954 6.40463 36.3414 7.30765 36.2914L14.1104 35.9153C14.5706 35.8899 15.0175 36.075 15.3249 36.4184L19.8693 41.4946C20.4725 42.1685 21.5275 42.1685 22.1307 41.4946L26.6751 36.4184C26.9825 36.075 27.4294 35.8899 27.8896 35.9153L34.6923 36.2914C35.5954 36.3414 36.3414 35.5954 36.2914 34.6923L35.9153 27.8896C35.8899 27.4294 36.075 26.9825 36.4184 26.6751L41.4946 22.1307C42.1685 21.5275 42.1685 20.4725 41.4946 19.8693L36.4184 15.3249C36.075 15.0175 35.8899 14.5706 35.9153 14.1104L36.2914 7.30765C36.3414 6.40463 35.5954 5.65865 34.6923 5.70857L27.8896 6.08465C27.4294 6.11009 26.9825 5.925 26.6751 5.58159L22.1307 0.505373ZM21.8289 9.37646C21.4261 8.80105 20.574 8.80105 20.1712 9.37646L18.0369 12.4255C17.8114 12.7477 17.4195 12.91 17.0322 12.8417L13.367 12.1948C12.6753 12.0728 12.0728 12.6753 12.1948 13.367L12.8417 17.0322C12.91 17.4195 12.7477 17.8114 12.4255 18.0369L9.37646 20.1712C8.80105 20.574 8.80105 21.4261 9.37646 21.8289L12.4255 23.9632C12.7477 24.1887 12.91 24.5806 12.8417 24.9679L12.1948 28.6331C12.0728 29.3247 12.6753 29.9273 13.367 29.8053L17.0322 29.1584C17.4195 29.09 17.8114 29.2524 18.0369 29.5746L20.1712 32.6236C20.574 33.199 21.4261 33.199 21.8289 32.6236L23.9632 29.5746C24.1887 29.2524 24.5806 29.09 24.9679 29.1584L28.6331 29.8053C29.3247 29.9273 29.9273 29.3248 29.8053 28.6331L29.1584 24.9679C29.09 24.5806 29.2524 24.1887 29.5746 23.9632L32.6236 21.8289C33.199 21.4261 33.199 20.574 32.6236 20.1712L29.5746 18.0369C29.2524 17.8114 29.09 17.4195 29.1584 17.0322L29.8053 13.367C29.9273 12.6753 29.3248 12.0728 28.6331 12.1948L24.9679 12.8417C24.5806 12.91 24.1887 12.7477 23.9632 12.4255L21.8289 9.37646Z" fill="#EB5931"/>
</svg>
