<svg width="19" height="19" viewBox="0 0 19 19" fill="none" xmlns="http://www.w3.org/2000/svg">
<path d="M16.5838 5.20036C16.9874 4.79684 17.2142 4.24951 17.2143 3.67877C17.2144 3.10804 16.9877 2.56065 16.5842 2.15703C16.1807 1.75341 15.6333 1.52662 15.0626 1.52655C14.4919 1.52648 13.9445 1.75313 13.5409 2.15665L3.35243 12.3474C3.17519 12.5241 3.04411 12.7417 2.97073 12.981L1.96227 16.3033C1.94254 16.3694 1.94105 16.4395 1.95796 16.5063C1.97487 16.5731 2.00954 16.6341 2.0583 16.6828C2.10707 16.7314 2.1681 16.766 2.23493 16.7828C2.30175 16.7996 2.37188 16.798 2.43787 16.7782L5.76098 15.7705C6.00006 15.6978 6.21763 15.5675 6.39461 15.3911L16.5838 5.20036Z" stroke="white" stroke-width="1.52681" stroke-linecap="round" stroke-linejoin="round"/>
<path d="M11.8706 3.81705L14.9242 6.87067" stroke="white" stroke-width="1.52681" stroke-linecap="round" stroke-linejoin="round"/>
</svg>
