<svg width="24" height="24" viewBox="0 0 24 24" fill="none" xmlns="http://www.w3.org/2000/svg">
<path d="M13.2344 20.252L21.0004 12.3" stroke="#A1A1A1" stroke-width="1.5" stroke-linecap="round" stroke-linejoin="round"/>
<path d="M15.9995 6L7.58553 14.586C7.21059 14.9611 6.99996 15.4697 6.99996 16C6.99996 16.5303 7.21059 17.0389 7.58553 17.414C7.96059 17.7889 8.4692 17.9996 8.99953 17.9996C9.52986 17.9996 10.0385 17.7889 10.4135 17.414L18.8275 8.828C19.5774 8.07789 19.9987 7.06066 19.9987 6C19.9987 4.93934 19.5774 3.92211 18.8275 3.172C18.0774 2.42212 17.0602 2.00085 15.9995 2.00085C14.9389 2.00085 13.9216 2.42212 13.1715 3.172L4.75653 11.757C3.63122 12.8823 2.99902 14.4086 2.99902 16C2.99902 17.5914 3.63122 19.1177 4.75653 20.243C5.88184 21.3683 7.4081 22.0005 8.99953 22.0005C10.591 22.0005 12.1172 21.3683 13.2425 20.243" stroke="#A1A1A1" stroke-width="1.5" stroke-linecap="round" stroke-linejoin="round"/>
</svg>
